<svg height="512pt" viewBox="0 0 512 512" width="512pt" xmlns="http://www.w3.org/2000/svg"><g fill="#fff"><path d="m438.160156 408 65.839844 96h-48l-68.5625-96zm0 0"/><path d="m275.121094 408-3.121094 96h-32l-3.121094-96zm0 0"/><path d="m124.558594 408-68.558594 96h-48l65.839844-96zm0 0"/></g><path d="m296 152v24h-80v-24zm0 0" fill="#58abfb"/><path d="m240 120h32v32h-32zm0 0" fill="#fff"/><path d="m408 40v48l-48 8v-64zm0 0" fill="#58abfb"/><path d="m136 32v64l-32 16v-96zm0 0" fill="#58abfb"/><path d="m136 32h32v64h-32zm0 0" fill="#fff"/><path d="m360 96v16l-8 8h-24v-112h24l8 8zm0 0" fill="#fff"/><path d="m232.078125 257.519531-107.519531 150.480469h-50.71875l126.160156-184h56zm0 0" fill="#58abfb"/><path d="m279.917969 257.519531-23.917969-33.519531h56l126.160156 184h-50.722656zm0 0" fill="#58abfb"/><path d="m279.917969 257.519531-4.796875 150.480469h-38.242188l-4.800781-150.480469 23.921875-33.519531zm0 0" fill="#58abfb"/><path d="m312 176v48h-112v-48zm0 0" fill="#fff"/><path d="m168 8h160v112h-160zm0 0" fill="#58abfb"/><path d="m510.597656 499.480469-190.597656-277.960938v-45.519531c0-4.417969-3.582031-8-8-8h-8v-16c0-4.417969-3.582031-8-8-8h-16v-16h72c2.121094 0 4.15625-.84375 5.65625-2.34375l8-8c1.5-1.5 2.34375-3.535156 2.34375-5.65625v-9.222656l41.320312-6.890625c3.851563-.644531 6.679688-3.980469 6.679688-7.886719v-48c0-3.90625-2.828125-7.242188-6.679688-7.886719l-41.320312-6.890625v-9.222656c0-2.121094-.84375-4.15625-2.34375-5.65625l-8-8c-1.5-1.5-3.535156-2.34375-5.65625-2.34375h-184c-4.417969 0-8 3.582031-8 8v16h-22.113281l-30.3125-15.160156c-2.480469-1.238282-5.425781-1.105469-7.78125.351562-2.359375 1.460938-3.796875 4.035156-3.792969 6.808594v96c-.003906 2.773438 1.433594 5.347656 3.792969 6.808594 2.355469 1.457031 5.300781 1.589844 7.78125.351562l30.3125-15.160156h22.113281v16c0 4.417969 3.582031 8 8 8h64v16h-16c-4.417969 0-8 3.582031-8 8v16h-8c-4.417969 0-8 3.582031-8 8v45.519531l-190.601562 277.960938c-1.675782 2.449219-1.859376 5.625-.476563 8.25 1.386719 2.625 4.109375 4.269531 7.078125 4.269531h48c2.582031 0 5.007812-1.25 6.511719-3.351562l162.289062-227.234376 7.199219 222.851563c.140625 4.3125 3.683594 7.738281 8 7.734375h32c4.316406.003906 7.855469-3.421875 8-7.734375l7.199219-222.882813 162.289062 227.265626c1.5 2.101562 3.925781 3.351562 6.511719 3.351562h48c2.96875 0 5.691406-1.644531 7.074219-4.269531 1.386719-2.625 1.203125-5.800781-.476563-8.25zm-239.054687-267.480469h36.242187l115.199219 168h-31.441406zm-151.085938 168h-31.441406l115.199219-168h36.242187zm279.542969-318.777344-32 5.335938v-45.109375l32 5.335937zm-48-61.910156v89.375l-3.3125 3.3125h-12.6875v-96h12.6875zm-240 9.597656 16 8v54.113282l-16 8zm32 11.089844h16v48h-16zm32 56v-80h144v96h-144zm72 32h16v16h-16zm-24 32h64v8h-64zm-16 24h96v32h-96zm-156.121094 312h-28.679687l54.839843-80h30.984376zm195.855469 0-2.566406-80h21.664062l-2.585937 80zm19.609375-96h-22.6875l-4.496094-140.054688 15.839844-22.175781 15.871094 22.230469zm192.800781 96-57.167969-80h30.984376l54.839843 80zm0 0" fill="#107be8"/><path d="m184 24h16v16h-16zm0 0" fill="#107be8"/></svg>