<?xml version="1.0" encoding="iso-8859-1"?>
<!-- Generator: Adobe Illustrator 19.0.0, SVG Export Plug-In . SVG Version: 6.00 Build 0)  -->
<svg version="1.1" id="Capa_1" xmlns="http://www.w3.org/2000/svg" xmlns:xlink="http://www.w3.org/1999/xlink" x="0px" y="0px"
	 viewBox="0 0 512 512" style="enable-background:new 0 0 512 512;" xml:space="preserve">
<path style="fill:#4D4D4D;" d="M472,176c0-8.184-3.128-16.376-9.376-22.624C456.384,147.128,448.184,144,440,144H72
	c-8.184,0-16.384,3.128-22.624,9.376C43.128,159.624,40,167.816,40,176v256h432V176z"/>
<rect x="72" y="176" style="fill:#FFFFFF;" width="368" height="224"/>
<path style="fill:#4989B8;" d="M0,432v16c0,8.184,3.128,16.376,9.376,22.624C15.616,476.872,23.816,480,32,480h448
	c8.184,0,16.384-3.128,22.624-9.376C508.872,464.376,512,456.184,512,448v-16H0z"/>
<polygon style="fill:#FFFFFF;" points="304,448 208,448 192,432 320,432 "/>
<g>
	<rect x="96" y="312" style="fill:#4989B8;" width="320" height="64"/>
	<rect x="96" y="200" style="fill:#4989B8;" width="96" height="96"/>
	<rect x="208" y="200" style="fill:#4989B8;" width="96" height="96"/>
	<rect x="320" y="200" style="fill:#4989B8;" width="96" height="96"/>
</g>
<path style="fill:#4D4D4D;" d="M256,32c-30.928,0-56,25.08-56,56c0,5.056,0.736,9.92,1.976,14.568L256,248l54.024-145.432
	C311.264,97.92,312,93.056,312,88C312,57.08,286.928,32,256,32z"/>
<circle style="fill:#FFFFFF;" cx="256" cy="88" r="24"/>
<g>
	<rect x="328" y="80" style="fill:#4D4D4D;" width="16" height="16"/>
	<rect x="360" y="80" style="fill:#4D4D4D;" width="16" height="16"/>
	<rect x="392" y="80" style="fill:#4D4D4D;" width="16" height="16"/>
	<rect x="104" y="80" style="fill:#4D4D4D;" width="16" height="16"/>
	<rect x="136" y="80" style="fill:#4D4D4D;" width="16" height="16"/>
	<rect x="168" y="80" style="fill:#4D4D4D;" width="16" height="16"/>
</g>
<g>
	<rect x="216" y="336" style="fill:#FFFFFF;" width="16" height="16"/>
	<rect x="248" y="336" style="fill:#FFFFFF;" width="16" height="16"/>
	<rect x="280" y="336" style="fill:#FFFFFF;" width="16" height="16"/>
</g>
<g>
</g>
<g>
</g>
<g>
</g>
<g>
</g>
<g>
</g>
<g>
</g>
<g>
</g>
<g>
</g>
<g>
</g>
<g>
</g>
<g>
</g>
<g>
</g>
<g>
</g>
<g>
</g>
<g>
</g>
</svg>
