<?xml version="1.0" encoding="iso-8859-1"?>
<!-- Generator: Adobe Illustrator 19.0.0, SVG Export Plug-In . SVG Version: 6.00 Build 0)  -->
<svg version="1.1" id="Layer_1" xmlns="http://www.w3.org/2000/svg" xmlns:xlink="http://www.w3.org/1999/xlink" x="0px" y="0px"
	 viewBox="0 0 512 512" style="enable-background:new 0 0 512 512;" xml:space="preserve">
<polygon style="fill:#4D4D4D;" points="240,136 240,328 440,328 488,376 488,328 512,328 512,136 "/>
<g>
	<rect x="408" y="160" style="fill:#FFFFFF;" width="16" height="16"/>
	<rect x="440" y="160" style="fill:#FFFFFF;" width="16" height="16"/>
	<rect x="472" y="160" style="fill:#FFFFFF;" width="16" height="16"/>
	<rect x="344" y="192" style="fill:#FFFFFF;" width="144" height="16"/>
	<rect x="296" y="224" style="fill:#FFFFFF;" width="192" height="16"/>
	<rect x="296" y="256" style="fill:#FFFFFF;" width="192" height="16"/>
	<rect x="416" y="288" style="fill:#FFFFFF;" width="72" height="16"/>
</g>
<polygon style="fill:#4D4D4D;" points="0,16 0,208 24,208 24,256 72,208 320,208 320,16 "/>
<g>
	<rect x="24" y="40" style="fill:#FFFFFF;" width="16" height="16"/>
	<rect x="56" y="40" style="fill:#FFFFFF;" width="16" height="16"/>
	<rect x="88" y="40" style="fill:#FFFFFF;" width="16" height="16"/>
	<rect x="24" y="72" style="fill:#FFFFFF;" width="272" height="16"/>
	<rect x="24" y="104" style="fill:#FFFFFF;" width="272" height="16"/>
	<rect x="24" y="136" style="fill:#FFFFFF;" width="160" height="16"/>
	<rect x="24" y="168" style="fill:#FFFFFF;" width="160" height="16"/>
	<rect x="176" y="40" style="fill:#FFFFFF;" width="120" height="16"/>
</g>
<g>
	<path style="fill:#4989B8;" d="M384.8,311.2c-4.8-4.8-11.2-7.2-16.8-7.2H248v48h120c6.4,0,12-2.4,16.8-7.2s7.2-11.2,7.2-16.8
		S389.6,316,384.8,311.2z"/>
	<path style="fill:#4989B8;" d="M376.8,359.2c-4.8-4.8-11.2-7.2-16.8-7.2H240v48h120c6.4,0,12-2.4,16.8-7.2s7.2-11.2,7.2-16.8
		S381.6,364,376.8,359.2z"/>
	<path style="fill:#4989B8;" d="M368.8,407.2c-4.8-4.8-11.2-7.2-16.8-7.2H232v48h120c6.4,0,12-2.4,16.8-7.2s7.2-11.2,7.2-16.8
		S373.6,412,368.8,407.2z"/>
	<path style="fill:#4989B8;" d="M360.8,455.2c-4.8-4.8-11.2-7.2-16.8-7.2H224v48h120c6.4,0,12-2.4,16.8-7.2s7.2-11.2,7.2-16.8
		S365.6,460,360.8,455.2z"/>
	<polygon style="fill:#4989B8;" points="128,480 160,480 184,496 264,496 264,304 128,304 	"/>
	<path style="fill:#4989B8;" d="M267.2,172.8c-3.2-3.2-7.2-4.8-11.2-4.8s-8,1.6-11.2,4.8S240,180,240,184l-24,48l-64,72h96l24-88
		v-32C272,180,270.4,176,267.2,172.8z"/>
</g>
<rect y="304" style="fill:#4D4D4D;" width="128" height="192"/>
<g>
	<rect x="96" y="464" style="fill:#FFFFFF;" width="16" height="16"/>
	<rect x="96" y="432" style="fill:#FFFFFF;" width="16" height="16"/>
</g>
<g>
</g>
<g>
</g>
<g>
</g>
<g>
</g>
<g>
</g>
<g>
</g>
<g>
</g>
<g>
</g>
<g>
</g>
<g>
</g>
<g>
</g>
<g>
</g>
<g>
</g>
<g>
</g>
<g>
</g>
</svg>
