<?xml version="1.0" encoding="iso-8859-1"?>
<!-- Generator: Adobe Illustrator 19.0.0, SVG Export Plug-In . SVG Version: 6.00 Build 0)  -->
<svg version="1.1" id="Layer_1" xmlns="http://www.w3.org/2000/svg" xmlns:xlink="http://www.w3.org/1999/xlink" x="0px" y="0px"
	 viewBox="0 0 512 512" style="enable-background:new 0 0 512 512;" xml:space="preserve">
<g>
	<polygon style="fill:#4D4D4D;" points="64,208 48,208 48,24 408,24 408,80 392,80 392,40 64,40 	"/>
	<rect x="96" y="64" style="fill:#4D4D4D;" width="264" height="16"/>
	<rect x="96" y="96" style="fill:#4D4D4D;" width="64" height="16"/>
	<rect x="96" y="128" style="fill:#4D4D4D;" width="64" height="16"/>
	<rect x="96" y="160" style="fill:#4D4D4D;" width="64" height="16"/>
	<rect x="96" y="192" style="fill:#4D4D4D;" width="64" height="16"/>
	<rect x="176" y="96" style="fill:#4D4D4D;" width="336" height="208"/>
	<polygon style="fill:#4D4D4D;" points="472,360 472,304 416,304 	"/>
</g>
<g>
	<rect x="216" y="128" style="fill:#FFFFFF;" width="120" height="16"/>
	<rect x="216" y="160" style="fill:#FFFFFF;" width="256" height="16"/>
	<rect x="216" y="192" style="fill:#FFFFFF;" width="256" height="16"/>
	<rect x="352" y="224" style="fill:#FFFFFF;" width="120" height="16"/>
	<rect x="352" y="256" style="fill:#FFFFFF;" width="120" height="16"/>
</g>
<g>
	<rect y="224" style="fill:#4989B8;" width="336" height="208"/>
	<polygon style="fill:#4989B8;" points="40,488 40,432 96,432 	"/>
</g>
<g>
	<rect x="40" y="384" style="fill:#4D4D4D;" width="192" height="16"/>
	<rect x="40" y="352" style="fill:#4D4D4D;" width="256" height="16"/>
	<rect x="40" y="320" style="fill:#4D4D4D;" width="256" height="16"/>
	<rect x="40" y="288" style="fill:#4D4D4D;" width="120" height="16"/>
	<rect x="40" y="256" style="fill:#4D4D4D;" width="120" height="16"/>
</g>
<rect x="176" y="224" style="fill:#FFFFFF;" width="160" height="80"/>
<g>
	<rect x="216" y="256" style="fill:#4D4D4D;" width="16" height="16"/>
	<rect x="248" y="256" style="fill:#4D4D4D;" width="16" height="16"/>
	<rect x="280" y="256" style="fill:#4D4D4D;" width="16" height="16"/>
	<rect x="352" y="352" style="fill:#4D4D4D;" width="48" height="16"/>
	<rect x="352" y="384" style="fill:#4D4D4D;" width="120" height="16"/>
	<rect x="352" y="416" style="fill:#4D4D4D;" width="120" height="16"/>
	<rect x="296" y="448" style="fill:#4D4D4D;" width="176" height="16"/>
</g>
<g>
</g>
<g>
</g>
<g>
</g>
<g>
</g>
<g>
</g>
<g>
</g>
<g>
</g>
<g>
</g>
<g>
</g>
<g>
</g>
<g>
</g>
<g>
</g>
<g>
</g>
<g>
</g>
<g>
</g>
</svg>
