<svg height="512pt" viewBox="0 -56 512.00108 512" width="512pt" xmlns="http://www.w3.org/2000/svg" xmlns:xlink="http://www.w3.org/1999/xlink"><linearGradient id="a"><stop offset="0" stop-color="#662d91"/><stop offset=".437" stop-color="#3873b3"/><stop offset="1" stop-color="#00c9dd"/></linearGradient><linearGradient id="b" gradientTransform="matrix(1.084911 0 0 -1.084911 0 451.336208)" gradientUnits="userSpaceOnUse" x1="44.6572" x2="447.9799" xlink:href="#a" y1="423.3464" y2="20.0237"/><linearGradient id="c" gradientTransform="matrix(1.084911 0 0 -1.084911 0 451.336208)" gradientUnits="userSpaceOnUse" x1="-25.3322" x2="377.9906" xlink:href="#a" y1="353.3571" y2="-49.9657"/><linearGradient id="d" gradientTransform="matrix(1.084911 0 0 -1.084911 0 451.336208)" gradientUnits="userSpaceOnUse" x1="54.6557" x2="457.9784" xlink:href="#a" y1="433.3449" y2="30.0222"/><linearGradient id="e" gradientTransform="matrix(1.084911 0 0 -1.084911 0 451.336208)" gradientUnits="userSpaceOnUse" x1="16.6615" x2="419.9842" xlink:href="#a" y1="395.3507" y2="-7.9721"/><path d="m8.679688 399.1875h494.644531c4.792969 0 8.675781-3.886719 8.675781-8.679688v-381.828124c0-4.792969-3.882812-8.679688-8.675781-8.679688h-494.644531c-4.792969 0-8.679688 3.886719-8.679688 8.679688v381.832031c0 4.789062 3.886719 8.675781 8.679688 8.675781zm364.734374-162.773438c.15625.597657.375 1.179688.648438 1.738282l7.8125 15.523437v41.375h-243.027344v-41.339843l7.765625-15.527344c.277344-.554688.496094-1.136719.652344-1.734375l2.691406-10.820313h220.765625zm-26.296874 110.707032v34.710937h-173.558594v-34.710937zm-216.949219-17.359375v-17.355469h260.339843v17.355469zm-78.101563-121.488281v-17.359376h407.867188v17.359376zm407.867188-104.136719h-407.867188v-17.355469h407.867188zm-407.867188 17.355469h407.867188v17.355468h-407.867188zm0 34.710937h407.867188v17.355469h-407.867188zm0 69.425781h80.003906l-1.40625 5.648438-8.261718 16.488281c-.601563 1.210937-.914063 2.542969-.910156 3.894531v43.390625h-26.035157c-4.792969 0-8.675781 3.886719-8.675781 8.679688v78.101562h-34.714844zm52.070313 156.203125v-69.421875h8.675781v26.03125c0 4.792969 3.886719 8.679688 8.679688 8.679688h34.710937v34.710937zm260.339843 0v-34.710937h34.710938c4.792969 0 8.675781-3.886719 8.675781-8.679688v-26.03125h8.679688v69.421875zm69.421876 0v-78.101562c0-4.792969-3.886719-8.679688-8.679688-8.679688h-26.03125v-43.390625c.015625-1.339844-.28125-2.667968-.867188-3.875l-8.261718-16.488281-1.449219-5.667969h71.324219v156.203125zm-416.542969-364.476562h477.289062v364.476562h-17.355469v-303.730469c0-4.792968-3.886718-8.675781-8.679687-8.675781h-425.21875c-4.792969 0-8.679687 3.882813-8.679687 8.675781v303.730469h-17.355469zm0 0" fill="url(#b)"/><path d="m199.59375 269.015625c0-14.375-11.65625-26.03125-26.035156-26.03125-14.375 0-26.03125 11.65625-26.03125 26.03125 0 14.378906 11.65625 26.035156 26.03125 26.035156 14.378906 0 26.035156-11.65625 26.035156-26.035156zm-26.035156 8.679687c-4.792969 0-8.675782-3.886718-8.675782-8.679687s3.882813-8.675781 8.675782-8.675781c4.792968 0 8.679687 3.882812 8.679687 8.675781s-3.886719 8.679687-8.679687 8.679687zm0 0" fill="url(#c)"/><path d="m373.152344 269.015625c0-14.375-11.65625-26.03125-26.03125-26.03125-14.378906 0-26.035156 11.65625-26.035156 26.03125 0 14.378906 11.65625 26.035156 26.035156 26.035156 14.375 0 26.03125-11.65625 26.03125-26.035156zm-26.035156 8.679687c-4.792969 0-8.675782-3.886718-8.675782-8.679687s3.882813-8.675781 8.675782-8.675781c4.792968 0 8.679687 3.882812 8.679687 8.675781s-3.886719 8.679687-8.679687 8.679687zm0 0" fill="url(#d)"/><path d="m229.964844 286.375h60.746094c11.984374 0 21.695312-9.714844 21.695312-21.695312 0-11.984376-9.710938-21.695313-21.695312-21.695313h-60.746094c-11.980469 0-21.691406 9.710937-21.691406 21.695313 0 11.980468 9.710937 21.695312 21.691406 21.695312zm0-26.035156h60.746094c2.398437 0 4.339843 1.945312 4.339843 4.339844 0 2.394531-1.945312 4.335937-4.339843 4.335937h-60.746094c-2.394532 0-4.335938-1.941406-4.335938-4.335937 0-2.394532 1.941406-4.339844 4.335938-4.339844zm0 0" fill="url(#e)"/></svg>