<svg height="512pt" viewBox="0 -8 512 512" width="512pt" xmlns="http://www.w3.org/2000/svg"><path d="m317.78125 33.9375v316.90625c0 18.746094-71.136719 33.941406-158.890625 33.941406s-158.890625-15.195312-158.890625-33.941406v-316.90625zm0 0" fill="#4895ff"/><path d="m317.78125 33.9375v316.90625c0 18.746094-71.136719 33.941406-158.890625 33.941406v-350.847656zm0 0" fill="#2682ff"/><path d="m317.78125 141.417969v105.628906c0 2.34375-1.109375 4.625-3.226562 6.839844-22.152344 23.089843-122.367188 27.097656-155.664063 27.097656-71.15625 0-131.386719-9.984375-151.628906-23.757813-4.71875-3.210937-7.261719-6.628906-7.261719-10.171874v-105.636719c0 18.746093 71.136719 33.929687 158.890625 33.929687s158.890625-15.183594 158.890625-33.929687zm0 0" fill="#aed0ff"/><path d="m317.78125 141.417969v105.628906c0 2.34375-1.109375 4.625-3.226562 6.839844-22.152344 23.089843-122.367188 27.097656-155.664063 27.097656v-105.636719c87.753906 0 158.890625-15.183594 158.890625-33.929687zm0 0" fill="#8cbcff"/><path d="m317.78125 33.941406c0 18.734375-71.136719 33.929688-158.890625 33.929688s-158.890625-15.195313-158.890625-33.929688c0-18.746094 71.136719-33.941406 158.890625-33.941406s158.890625 15.195312 158.890625 33.941406zm0 0" fill="#aed0ff"/><path d="m317.78125 33.941406c0 18.734375-71.136719 33.929688-158.890625 33.929688v-67.871094c87.753906 0 158.890625 15.195312 158.890625 33.941406zm0 0" fill="#8cbcff"/><path d="m512 346.328125c0 82.789063-67.347656 150.132813-150.121094 150.132813h-.574218c-82.527344-.3125-149.5625-67.535157-149.5625-150.132813 0-82.589844 67.035156-149.8125 149.5625-150.125h.574218c82.773438 0 150.121094 67.347656 150.121094 150.125zm0 0" fill="#ff5e93"/><path d="m512 346.328125c0 82.789063-67.347656 150.132813-150.121094 150.132813h-.574218v-300.257813h.574218c82.773438 0 150.121094 67.347656 150.121094 150.125zm0 0" fill="#ff3c7d"/><path d="m479.15625 346.328125c0 34.304687-14.722656 65.230469-38.191406 86.78125-20.992188 19.289063-48.976563 31.082031-79.660156 31.082031-30.125 0-57.660157-11.367187-78.523438-30.039062-24.136719-21.585938-39.351562-52.957032-39.351562-87.824219 0-64.988281 52.882812-117.851563 117.875-117.851563 64.988281 0 117.851562 52.863282 117.851562 117.851563zm0 0" fill="#ffeb99"/><path d="m479.15625 346.328125c0 34.304687-14.722656 65.230469-38.191406 86.78125-20.992188 19.289063-48.976563 31.082031-79.660156 31.082031v-235.714844c64.988281 0 117.851562 52.863282 117.851562 117.851563zm0 0" fill="#ffda44"/><path d="m440.964844 411.066406v22.042969c-20.992188 19.289063-48.976563 31.082031-79.660156 31.082031-30.125 0-57.660157-11.367187-78.523438-30.039062v-23.085938c0-33.84375 23.71875-62.132812 55.449219-69.191406-11.667969-7.683594-19.375-20.90625-19.375-35.917969 0-23.566406 18.957031-42.707031 42.449219-43 .1875-.011719.375-.011719.5625-.011719 23.761718 0 43.007812 19.257813 43.007812 43.011719 0 15.011719-7.691406 28.222657-19.359375 35.917969 31.726563 7.058594 55.449219 35.347656 55.449219 69.191406zm0 0" fill="#4895ff"/><path d="m440.964844 411.066406v22.042969c-20.992188 19.289063-48.976563 31.082031-79.660156 31.082031v-201.234375c.1875-.011719.375-.011719.5625-.011719 23.761718 0 43.007812 19.257813 43.007812 43.011719 0 15.011719-7.691406 28.222657-19.359375 35.917969 31.726563 7.058594 55.449219 35.347656 55.449219 69.191406zm0 0" fill="#2682ff"/></svg>