<?xml version="1.0" encoding="iso-8859-1"?>
<!-- Generator: Adobe Illustrator 19.0.0, SVG Export Plug-In . SVG Version: 6.00 Build 0)  -->
<svg version="1.1" id="Layer_1" xmlns="http://www.w3.org/2000/svg" xmlns:xlink="http://www.w3.org/1999/xlink" x="0px" y="0px"
	 viewBox="0 0 481.905 481.905" style="enable-background:new 0 0 481.905 481.905;" xml:space="preserve">
<path style="fill:#1A3B7E;" d="M421.67,90.364v391.529h-60.235V90.364l19.343-32.226c3.305,1.431,7.01,2.108,10.775,2.108
	c3.765,0,7.454-0.678,10.775-2.108L421.67,90.364z"/>
<path style="fill:#C5CAE9;" d="M421.67,30.129c0,17.032-13.99,30.118-30.118,30.118c-15.955,0-30.118-12.928-30.118-30.118
	c0-16.64,13.478-30.118,30.118-30.118C408.192,0.011,421.67,13.489,421.67,30.129z"/>
<path style="fill:#1A3B7E;" d="M120.493,90.364v391.529H60.258V90.364l19.343-32.226c3.313,1.431,7.01,2.108,10.775,2.108
	c3.765,0,7.454-0.678,10.775-2.108L120.493,90.364z"/>
<rect y="90.364" style="fill:#FFFFFF;" width="481.882" height="90.353"/>
<g>
	<polygon style="fill:#2979FF;" points="0.023,180.717 90.376,90.364 0.023,90.364 	"/>
	<polygon style="fill:#2979FF;" points="82.846,180.717 173.199,90.364 263.552,90.364 173.199,180.717 	"/>
	<polygon style="fill:#2979FF;" points="256.023,180.717 346.376,90.364 436.728,90.364 346.376,180.717 	"/>
	<polygon style="fill:#2979FF;" points="481.905,120.482 481.905,180.717 421.67,180.717 	"/>
</g>
<rect y="240.952" style="fill:#FFFFFF;" width="481.882" height="90.353"/>
<path style="fill:#C5CAE9;" d="M120.493,30.129c0,17.032-13.99,30.118-30.118,30.118c-15.955,0-30.118-12.928-30.118-30.118
	c0-16.64,13.478-30.118,30.118-30.118S120.493,13.489,120.493,30.129z"/>
<g>
	<polygon style="fill:#2979FF;" points="0.023,331.305 90.376,240.952 0.023,240.952 	"/>
	<polygon style="fill:#2979FF;" points="82.846,331.305 173.199,240.952 263.552,240.952 173.199,331.305 	"/>
	<polygon style="fill:#2979FF;" points="256.023,331.305 346.376,240.952 436.728,240.952 346.376,331.305 	"/>
	<polygon style="fill:#2979FF;" points="481.905,271.07 481.905,331.305 421.67,331.305 	"/>
</g>
<rect x="60.235" y="331.305" style="fill:#1A3B7E;" width="60.235" height="150.588"/>
<g>
	<path style="fill:#FFFFFF;" d="M90.376,0.011c-16.64,0-30.118,13.478-30.118,30.118c0,8.433,3.433,15.804,8.787,21.158
		l42.534-42.534C106.142,3.347,98.65,0.011,90.376,0.011z"/>
	<path style="fill:#FFFFFF;" d="M391.552,0.011c-16.64,0-30.118,13.478-30.118,30.118c0,8.433,3.433,15.804,8.787,21.158
		l42.526-42.534C407.326,3.347,399.827,0.011,391.552,0.011z"/>
</g>
<g>
</g>
<g>
</g>
<g>
</g>
<g>
</g>
<g>
</g>
<g>
</g>
<g>
</g>
<g>
</g>
<g>
</g>
<g>
</g>
<g>
</g>
<g>
</g>
<g>
</g>
<g>
</g>
<g>
</g>
</svg>
