<?xml version="1.0" encoding="UTF-8"?>
<svg xmlns="http://www.w3.org/2000/svg" xmlns:xlink="http://www.w3.org/1999/xlink" viewBox="0 0 40 40" version="1.1" width="480px" height="480px">
<g id="surface1">
<path style=" fill:#4788C7;" d="M 32.207031 26.871094 L 34 23.929688 L 34 28 Z "/>
<path style=" fill:#4788C7;" d="M 31 28 L 31 23.929688 L 28.285156 26.644531 Z "/>
<path style=" fill:#4788C7;" d="M 34 18 L 34 23 L 36.300781 18.644531 Z "/>
<path style=" fill:#4788C7;" d="M 31.042969 18.292969 L 31 23 L 33.707031 18.824219 Z "/>
<path style=" fill:#DFF0FE;" d="M 15.070313 38.21875 C 14.535156 37.335938 13.5 35.222656 13.5 32 L 13.5 30.214844 L 12.574219 31.738281 C 10.664063 34.882813 7.785156 36.007813 6.535156 36.359375 C 6.660156 34.730469 7.183594 30.460938 9.347656 28.359375 L 10.933594 26.820313 L 8.839844 27.527344 C 7.996094 27.8125 6.863281 28.136719 5.59375 28.136719 C 4.289063 28.136719 3.085938 27.785156 1.992188 27.097656 C 3.761719 26.234375 7.929688 23.878906 9.460938 20.191406 L 9.667969 19.695313 L 9.15625 19.523438 C 5.941406 18.453125 4.5 15.476563 4.5 13 C 4.5 11.015625 5.15625 9.75 5.671875 9.0625 C 6.21875 10.628906 7.910156 11.886719 8.726563 12.417969 L 10.070313 13.300781 L 9.464844 11.8125 C 8.164063 8.640625 8.222656 6.058594 9.699219 3.410156 C 10.007813 4.816406 10.777344 6.972656 12.703125 8.402344 L 13.5 8.992188 L 13.5 8 C 13.5 4.367188 14.847656 2.601563 15.652344 1.871094 C 16.0625 3.414063 17.5625 6.5 23 6.5 C 30.265625 6.5 30.492188 9.871094 30.5 10.015625 L 30.519531 10.421875 L 30.921875 10.492188 C 34.320313 11.039063 38.144531 12.109375 38.421875 12.828125 C 38.519531 13.078125 38.539063 13.28125 38.480469 13.371094 C 38.410156 13.472656 38.175781 13.523438 37.980469 13.523438 L 37.5 13.523438 L 37.425781 14.003906 C 37.367188 15.429688 36.796875 19.5 35 19.5 C 32.816406 19.5 31.664063 18.574219 30.644531 17.757813 C 29.839844 17.109375 29.078125 16.5 28 16.5 C 25.519531 16.5 23.5 18.519531 23.5 21 C 23.5 23.917969 24.058594 25.5 27 25.5 C 29.371094 25.5 33.304688 26.597656 34.316406 28.390625 C 35.074219 29.734375 33.515625 31.789063 32.351563 32.980469 C 32.050781 31.820313 31.246094 30.5 29.511719 30.5 L 27.8125 30.496094 C 25.589844 30.496094 24.851563 30.539063 24.128906 31.378906 C 22.847656 33.117188 23.894531 36.503906 24.558594 38.21875 C 21.4375 37 19.929688 33.648438 19.554688 31.898438 L 19.472656 31.5 L 18.675781 31.5 L 18.515625 31.878906 C 17.707031 35.105469 15.886719 37.34375 15.070313 38.21875 Z "/>
<path style=" fill:#4788C7;" d="M 15.453125 2.828125 C 16.183594 4.585938 18.082031 7 23 7 C 29.710938 7 29.992188 9.921875 30 10.019531 L 30.015625 10.855469 L 30.839844 10.988281 C 34.101563 11.511719 37.34375 12.445313 37.941406 13.023438 L 36.96875 12.960938 L 36.925781 13.980469 C 36.839844 16.085938 36.121094 19 35 19 C 32.992188 19 31.960938 18.171875 30.957031 17.367188 C 30.121094 16.695313 29.257813 16 28 16 C 25.242188 16 23 18.242188 23 21 C 23 24.085938 23.667969 26 27 26 C 29.199219 26 32.972656 27.027344 33.878906 28.636719 C 34.363281 29.492188 33.496094 30.914063 32.546875 32.027344 C 32.0625 30.964844 31.136719 30 29.511719 30 L 28.535156 29.996094 L 27.8125 29.996094 C 25.710938 29.996094 24.65625 29.996094 23.75 31.054688 L 23.726563 31.082031 L 23.703125 31.113281 C 22.554688 32.667969 23.054688 35.292969 23.667969 37.210938 C 20.859375 35.4375 20.054688 31.835938 20.046875 31.789063 L 19.875 31 L 18.21875 31 L 18.03125 31.757813 C 17.378906 34.363281 16.035156 36.304688 15.160156 37.359375 C 14.648438 36.335938 14 34.539063 14 32 L 14 28.429688 L 12.144531 31.480469 C 10.609375 34.003906 8.453125 35.15625 7.105469 35.65625 C 7.3125 33.78125 7.921875 30.441406 9.695313 28.71875 L 12.863281 25.640625 L 8.679688 27.050781 C 7.871094 27.324219 6.789063 27.636719 5.59375 27.636719 C 4.683594 27.636719 3.84375 27.464844 3.058594 27.109375 C 5.132813 25.980469 8.542969 23.710938 9.921875 20.382813 L 10.335938 19.390625 L 9.316406 19.050781 C 6.335938 18.058594 5 15.296875 5 13 C 5 11.714844 5.289063 10.765625 5.621094 10.09375 C 6.40625 11.386719 7.742188 12.371094 8.453125 12.835938 L 11.144531 14.597656 L 9.925781 11.621094 C 8.867188 9.035156 8.734375 6.925781 9.578125 4.808594 C 10.046875 6.136719 10.890625 7.679688 12.402344 8.804688 L 14 9.988281 L 14 8 C 14 5.304688 14.773438 3.710938 15.453125 2.828125 M 16 1 C 16 1 13 2.527344 13 8 C 10.160156 5.890625 10 2 10 2 C 7.566406 5.46875 7.582031 8.542969 9 12 C 7.753906 11.183594 5.945313 9.628906 6 8 C 6 8 4 9.4375 4 13 C 4 15.828125 5.71875 18.90625 9 20 C 7.132813 24.496094 1 27 1 27 C 2.5625 28.253906 4.171875 28.636719 5.59375 28.636719 C 6.976563 28.636719 8.183594 28.273438 9 28 C 6.125 30.792969 6 37 6 37 C 6 37 10.367188 36.332031 13 32 C 13 36.582031 15 39 15 39 C 15 39 17.898438 36.410156 19 32 L 19.066406 32 C 19.425781 33.679688 21.167969 38.066406 25.429688 39 C 25.429688 39 23 33.75 24.507813 31.703125 C 25.066406 31.054688 25.597656 30.996094 27.8125 30.996094 C 28.296875 30.996094 28.855469 31 29.515625 31 C 31.910156 31 32 34 32 34 C 32 34 36.082031 30.5 34.75 28.144531 C 33.582031 26.074219 29.375 25 27 25 C 24.625 25 24 24.054688 24 21 C 24 18.765625 25.851563 17 28 17 C 30.148438 17 30.929688 20 35 20 C 37.6875 20 37.925781 14.023438 37.925781 14.023438 C 37.925781 14.023438 37.945313 14.023438 37.980469 14.023438 C 38.25 14.023438 39.386719 13.949219 38.886719 12.648438 C 38.320313 11.179688 31 10 31 10 C 31 10 30.917969 6 23 6 C 16.183594 6 16 1 16 1 Z "/>
<path style=" fill:#98CCFD;" d="M 18.03125 17 C 15.222656 16.625 12.726563 15.503906 11.132813 14.566406 L 11.144531 14.597656 L 8.453125 12.835938 C 7.742188 12.371094 6.40625 11.386719 5.621094 10.09375 C 5.289063 10.765625 5 11.714844 5 13 C 5 15.296875 6.335938 18.058594 9.316406 19.050781 L 10.335938 19.390625 L 9.921875 20.382813 C 8.542969 23.710938 5.132813 25.980469 3.058594 27.109375 C 3.84375 27.464844 4.683594 27.636719 5.59375 27.636719 C 6.789063 27.636719 7.871094 27.324219 8.679688 27.050781 L 12.863281 25.640625 L 9.695313 28.71875 C 7.921875 30.441406 7.3125 33.777344 7.105469 35.65625 C 8.453125 35.152344 10.609375 34.003906 12.144531 31.480469 L 14 28.429688 L 14 32 C 14 34.539063 14.648438 36.335938 15.160156 37.359375 C 16.035156 36.304688 17.378906 34.363281 18.03125 31.757813 L 18.21875 31 L 19 31 L 19 17 Z "/>
<path style=" fill:#4788C7;" d="M 22 9 C 22 9 26.445313 11 27 11 C 27.550781 11 28 10.554688 28 10 C 28 9.449219 27.554688 9 27 9 C 26.449219 9 22 9 22 9 Z "/>
<path style=" fill:#4788C7;" d="M 38.886719 12.648438 C 38.554688 11.777344 35.863281 11.015625 33.714844 10.53125 C 34.882813 11.4375 36.484375 12.808594 37.925781 14.023438 C 37.925781 14.023438 39.453125 14.117188 38.886719 12.648438 Z "/>
<path style=" fill:#4788C7;" d="M 14 32 L 13 30.046875 C 13.84375 28.21875 17.933594 24.183594 17.976563 16 L 19 16 C 19 24.59375 14.0625 29.4375 14 32 Z "/>
<path style=" fill:#4788C7;" d="M 20 32 L 18.207031 31 C 18.207031 31 19 28.125 19 16 L 20 16 Z "/>
<path style=" fill:#4788C7;" d="M 17.976563 16 C 15.96875 19.53125 9 19 9 19 L 9 20 C 9.234375 20.023438 13.4375 20.1875 16.25 19 C 14.679688 21.667969 13.019531 24.707031 8.917969 27 L 10.375 28 C 15.480469 23.894531 18.855469 16.34375 19 16 Z "/>
<path style=" fill:#4788C7;" d="M 18.945313 17.285156 C 18.945313 17.296875 18.949219 17.304688 18.949219 17.3125 C 18.949219 17.304688 18.953125 17.285156 18.953125 17.285156 C 18.953125 17.285156 18.945313 17.285156 18.945313 17.285156 Z "/>
<path style=" fill:#4788C7;" d="M 9 8 L 9 12 L 11.125 14.5625 C 12.71875 15.5 15.222656 16.625 18.03125 17 L 20 17 L 19 16 C 16.429688 15.9375 9 13.8125 9 8 Z "/>
<path style=" fill:#98CCFD;" d="M 9.761719 10.988281 C 10.75 10.007813 12.082031 9.496094 12.988281 9.238281 L 12.402344 8.804688 C 10.890625 7.679688 10.046875 6.136719 9.578125 4.808594 C 8.871094 6.582031 8.855469 8.355469 9.496094 10.40625 C 9.578125 10.605469 9.660156 10.804688 9.761719 10.988281 Z "/>
<path style=" fill:#DFF0FE;" d="M 19 16 L 14 9 C 14 9 11.390625 9.375 9.761719 10.988281 C 11.71875 14.558594 16.933594 15.949219 19 16 Z "/>
<path style=" fill:#98CCFD;" d="M 13 10.777344 C 15.386719 14.683594 19 12.25 19 12.25 C 17.234375 8.824219 14 10.167969 13 10.777344 Z "/>
<path style=" fill:#4788C7;" d="M 9.769531 11 C 9.769531 10.996094 9.765625 10.992188 9.761719 10.988281 C 11.390625 9.375 14 9 14 9 L 14 7.988281 L 13.859375 8.011719 C 13.738281 8.027344 10.898438 8.453125 9.058594 10.277344 Z "/>
</g>
</svg>
